<svg xmlns="http://www.w3.org/2000/svg" viewBox="0 0 1200 220" width="1200" height="220" preserveAspectRatio="none">
  <defs>
    <linearGradient id="bg" x1="0" x2="1" y1="0" y2="0">
      <stop offset="0%" stop-color="#020617" />
      <stop offset="50%" stop-color="#04121f" />
      <stop offset="100%" stop-color="#020617" />
      <animate attributeName="x1" values="0;1;0" dur="10s" repeatCount="indefinite" />
      <animate attributeName="x2" values="1;2;1" dur="10s" repeatCount="indefinite" />
    </linearGradient>

    <linearGradient id="neon" x1="0" x2="1" y1="0" y2="0">
      <stop offset="0%" stop-color="#10F7DD" />
      <stop offset="50%" stop-color="#8B5CF6" />
      <stop offset="100%" stop-color="#10F7DD" />
      <animate attributeName="x1" values="0;1;0" dur="6s" repeatCount="indefinite" />
      <animate attributeName="x2" values="1;2;1" dur="6s" repeatCount="indefinite" />
    </linearGradient>

    <filter id="glow" x="-40%" y="-80%" width="180%" height="260%">
      <feGaussianBlur stdDeviation="6" result="blur" />
      <feColorMatrix in="blur" type="matrix"
        values="1 0 0 0 0  0 1 0 0 0  0 0 1 0 0  0 0 0 1 0" result="colored" />
      <feMerge>
        <feMergeNode in="colored" />
        <feMergeNode in="SourceGraphic" />
      </feMerge>
    </filter>

    <path id="wave" d="M0,120 C120,70 240,170 360,120 C480,70 600,170 720,120 C840,70 960,170 1080,120 C1140,95 1170,85 1200,90" />
  </defs>

  <rect width="1200" height="220" fill="url(#bg)" />

  <!-- subtle grid -->
  <g opacity="0.10">
    <path d="M0 40H1200M0 80H1200M0 120H1200M0 160H1200M0 200H1200" stroke="#10F7DD" stroke-width="1" />
    <path d="M100 0V220M200 0V220M300 0V220M400 0V220M500 0V220M600 0V220M700 0V220M800 0V220M900 0V220M1000 0V220M1100 0V220" stroke="#8B5CF6" stroke-width="1" />
  </g>

  <!-- moving neon waves -->
  <g filter="url(#glow)">
    <use href="#wave" fill="none" stroke="url(#neon)" stroke-width="6" stroke-linecap="round" stroke-dasharray="14 16">
      <animate attributeName="stroke-dashoffset" values="0;-300" dur="4s" repeatCount="indefinite" />
    </use>
    <use href="#wave" fill="none" stroke="#10F7DD" stroke-width="2.5" stroke-linecap="round" opacity="0.9" stroke-dasharray="2 18">
      <animate attributeName="stroke-dashoffset" values="0;260" dur="3.2s" repeatCount="indefinite" />
    </use>
    <use href="#wave" fill="none" stroke="#8B5CF6" stroke-width="2" stroke-linecap="round" opacity="0.7" transform="translate(0,22)" stroke-dasharray="8 22">
      <animate attributeName="stroke-dashoffset" values="0;-220" dur="5.1s" repeatCount="indefinite" />
    </use>
  </g>

  <!-- scanning beam -->
  <rect x="-200" y="0" width="180" height="220" fill="#10F7DD" opacity="0.08">
    <animate attributeName="x" values="-200;1200" dur="4.5s" repeatCount="indefinite" />
  </rect>

  <!-- particles -->
  <g>
    <circle cx="120" cy="60" r="2" fill="#10F7DD" opacity="0.9">
      <animate attributeName="cy" values="60;30;60" dur="2.4s" repeatCount="indefinite" />
      <animate attributeName="opacity" values="0.2;1;0.2" dur="2.4s" repeatCount="indefinite" />
    </circle>
    <circle cx="420" cy="170" r="2" fill="#8B5CF6" opacity="0.9">
      <animate attributeName="cy" values="170;140;170" dur="3.1s" repeatCount="indefinite" />
      <animate attributeName="opacity" values="0.2;1;0.2" dur="3.1s" repeatCount="indefinite" />
    </circle>
    <circle cx="760" cy="70" r="2" fill="#10F7DD" opacity="0.9">
      <animate attributeName="cy" values="70;40;70" dur="2.8s" repeatCount="indefinite" />
      <animate attributeName="opacity" values="0.2;1;0.2" dur="2.8s" repeatCount="indefinite" />
    </circle>
    <circle cx="1040" cy="150" r="2" fill="#8B5CF6" opacity="0.9">
      <animate attributeName="cy" values="150;120;150" dur="3.4s" repeatCount="indefinite" />
      <animate attributeName="opacity" values="0.2;1;0.2" dur="3.4s" repeatCount="indefinite" />
    </circle>
  </g>
</svg>
